<svg version="1.1" id="Layer_1" xmlns="http://www.w3.org/2000/svg" xmlns:xlink="http://www.w3.org/1999/xlink" x="0px" y="0px"
	 width="100%" viewBox="0 0 564 564" enable-background="new 0 0 564 564" xml:space="preserve">
<path fill="#FEFEFE" opacity="1.000000" stroke="none" 
	d="
M1.000000,216.000000 
	C1.000000,144.015823 1.000000,72.531654 1.000000,1.023742 
	C188.942535,1.023742 376.885101,1.023742 564.913818,1.023742 
	C564.913818,188.900909 564.913818,376.801849 564.913818,564.851440 
	C377.000092,564.851440 189.000061,564.851440 1.000000,564.851440 
	C1.000000,448.781464 1.000000,332.640717 1.000000,216.000000 
M238.591888,176.827057 
	C210.791611,147.044876 182.991333,117.262695 154.857590,87.123291 
	C142.609146,109.240738 137.582657,132.419220 136.386612,156.691788 
	C131.877563,139.690979 131.516373,122.403961 133.305252,104.529190 
	C107.577599,107.455307 86.174370,117.553543 67.626534,134.565201 
	C69.073959,136.177353 70.159874,137.426636 71.287544,138.637054 
	C105.818336,175.701218 140.337936,212.775848 174.897171,249.813507 
	C184.777252,260.402161 194.774109,270.881836 204.956757,282.176819 
	C205.563278,285.582184 206.169800,288.987549 206.128601,291.959991 
	C203.755905,289.657654 201.277634,287.453766 199.026138,285.038452 
	C155.277893,238.107010 111.548042,191.158401 67.861687,144.169388 
	C66.303459,142.493362 65.228928,140.367676 63.913956,138.429443 
	C2.809875,201.817322 24.546515,300.919586 80.731659,334.604675 
	C83.139381,320.521179 87.093994,307.053375 95.707100,294.026306 
	C95.994659,296.224487 96.225220,297.160461 96.209480,298.092285 
	C96.192780,299.081909 96.046272,300.096741 95.778648,301.050720 
	C91.336540,316.885101 90.964767,332.863007 94.006035,348.972900 
	C101.722717,389.848846 133.753693,424.553009 175.859909,429.236755 
	C205.919708,432.580475 231.479752,423.200989 252.883148,401.219635 
	C255.501236,407.563232 258.699554,413.736176 260.625580,420.283356 
	C265.816284,437.928345 265.426453,455.311951 256.588348,471.971588 
	C248.712723,486.817017 236.448547,497.137268 222.481430,505.904816 
	C213.602203,511.478577 204.326218,514.390381 193.755814,513.258789 
	C189.869354,512.842773 185.867691,513.502869 181.115585,513.506775 
	C180.308273,513.339111 179.501053,513.025452 178.693619,513.024902 
	C143.407837,512.999756 108.122002,513.027832 72.836327,512.962524 
	C69.280579,512.955933 68.548340,514.606689 69.278984,517.990906 
	C107.155762,517.990906 145.077103,517.990906 183.680832,518.508423 
	C242.638443,518.510498 301.596100,518.542603 360.553680,518.498108 
	C381.016296,518.482727 401.478821,518.277710 422.856659,518.446167 
	C425.666870,518.296997 428.476868,518.022400 431.287292,518.018372 
	C455.387939,517.984070 479.488678,517.998657 503.786560,517.998657 
	C504.644684,512.928162 501.332581,513.017212 498.253937,513.014099 
	C475.297546,512.990601 452.341095,512.973389 429.384888,513.037659 
	C426.600494,513.045471 423.817444,513.550537 420.325500,513.388367 
	C405.690277,513.313416 391.054932,513.255371 376.420013,513.141724 
	C374.617218,513.127686 372.662781,513.213928 371.038391,512.583923 
	C348.683105,503.914398 330.196014,490.424561 319.321899,468.501740 
	C311.756134,453.248749 308.713654,436.898438 311.593597,419.999268 
	C319.159546,424.262726 326.725494,428.526215 334.291443,432.789673 
	C334.639618,432.268921 334.987823,431.748169 335.335999,431.227417 
	C327.732330,423.123077 320.128632,415.018707 312.606415,406.137451 
	C313.310089,403.971832 314.013763,401.806213 315.105316,400.267914 
	C324.639648,410.509796 334.398315,420.555817 343.597595,431.090302 
	C347.262054,435.286713 351.446899,436.648102 356.571411,437.002991 
	C381.826508,438.752106 404.304413,431.768402 423.366211,415.078644 
	C430.138275,409.149323 435.879913,402.043182 442.142639,395.420624 
	C416.573700,367.921082 391.967072,341.456512 367.579987,314.262451 
	C368.355408,312.426910 369.130859,310.591370 370.519287,309.089478 
	C395.229279,335.579529 419.939270,362.069580 444.649261,388.559662 
	C445.286713,388.563812 445.924164,388.567993 446.561615,388.572144 
	C450.476044,377.725769 454.390472,366.879364 458.404358,355.757355 
	C458.404358,362.876221 458.404358,369.894958 458.404358,377.268799 
	C460.144440,376.922150 461.441376,376.756958 462.684326,376.402344 
	C486.418884,369.631012 503.868683,355.097809 516.297668,333.893372 
	C519.117859,329.082001 518.617188,326.518250 514.961914,322.611420 
	C455.651917,259.220123 396.506927,195.674408 337.326782,132.161591 
	C303.249939,95.589920 269.154297,59.035645 235.150269,22.396358 
	C232.754395,19.814821 230.945297,18.323347 227.266724,20.412506 
	C222.237030,23.269009 216.656464,25.148794 211.594864,27.957041 
	C188.857544,40.572002 171.327698,58.503891 157.969498,80.919479 
	C163.985672,87.393127 169.876862,93.725189 175.760345,100.064407 
	C198.872940,124.967392 221.983109,149.872635 245.044586,175.468079 
	C245.049866,175.698776 245.055145,175.929459 244.358902,176.453674 
	C243.509277,176.985229 242.659668,177.516769 241.410828,177.970947 
	C241.145355,177.941895 240.879578,177.938797 240.282211,176.845734 
	C239.978500,176.604248 239.674789,176.362762 239.287460,176.153351 
	C239.287460,176.153351 239.118652,176.361862 238.591888,176.827057 
M483.120819,279.372559 
	C496.000305,293.150360 508.879791,306.928131 522.337585,321.324524 
	C530.058594,300.088684 531.095520,279.821045 525.777832,258.802277 
	C522.572815,260.257904 519.904114,261.576996 517.152283,262.690521 
	C514.225464,263.874878 511.255188,264.979950 508.237885,265.904297 
	C505.602356,266.711700 502.875153,267.219879 500.188446,267.860260 
	C500.535614,266.789246 501.064301,266.406464 501.596313,266.028290 
	C530.238586,245.668030 545.025391,217.561935 546.614685,182.815201 
	C547.937256,153.900208 538.934326,128.077179 519.456055,106.419464 
	C502.354614,87.404602 480.929901,76.411583 455.239685,75.261726 
	C426.736603,73.985970 402.597839,84.238235 382.898651,104.911835 
	C381.362549,106.523933 379.621552,107.940796 377.975800,109.448402 
	C377.480286,108.975456 376.984772,108.502510 376.489258,108.029564 
	C381.605438,100.357620 386.646423,92.633690 391.890381,85.050095 
	C393.209595,83.142334 394.426971,81.729652 392.597290,79.434029 
	C384.749023,69.587082 377.873047,58.791050 369.045227,49.932934 
	C346.183502,26.992764 318.195251,14.091457 285.803650,11.357911 
	C269.966278,10.021389 254.381546,11.720463 238.633652,16.522919 
	C239.648376,17.809771 240.280640,18.740822 241.038818,19.554564 
	C273.865265,54.786205 306.710083,90.000694 339.537323,125.231560 
	C387.244781,176.432175 434.940521,227.643707 483.120819,279.372559 
z"/>
<path fill="#708A2A" opacity="1.000000" stroke="none" 
	d="
M245.094177,174.777039 
	C221.983109,149.872635 198.872940,124.967392 175.760345,100.064407 
	C169.876862,93.725189 163.985672,87.393127 157.969498,80.919479 
	C171.327698,58.503891 188.857544,40.572002 211.594864,27.957041 
	C216.656464,25.148794 222.237030,23.269009 227.266724,20.412506 
	C230.945297,18.323347 232.754395,19.814821 235.150269,22.396358 
	C269.154297,59.035645 303.249939,95.589920 337.326782,132.161591 
	C396.506927,195.674408 455.651917,259.220123 514.961914,322.611420 
	C518.617188,326.518250 519.117859,329.082001 516.297668,333.893372 
	C503.868683,355.097809 486.418884,369.631012 462.684326,376.402344 
	C461.441376,376.756958 460.144440,376.922150 458.404358,377.268799 
	C458.404358,369.894958 458.404358,362.876221 458.404358,355.757355 
	C454.390472,366.879364 450.476044,377.725769 446.561615,388.572144 
	C445.924164,388.567993 445.286713,388.563812 444.649261,388.559662 
	C419.939270,362.069580 395.229279,335.579529 370.231018,308.555389 
	C375.088348,293.449432 377.817932,278.411469 378.609131,262.947754 
	C377.137665,265.714142 376.397247,268.739166 375.114502,271.513428 
	C370.828278,280.783600 366.347900,289.963989 361.615662,299.062683 
	C353.154968,290.237823 345.020477,281.528992 337.021729,272.517212 
	C363.168549,249.475830 368.924377,220.089478 366.436981,193.370758 
	C365.859314,195.282425 365.387970,196.487213 365.134430,197.736237 
	C362.529388,210.568619 357.887665,222.625061 351.051117,233.775269 
	C344.501343,244.457764 336.761932,254.129196 325.840637,260.944885 
	C316.692963,251.445190 307.839111,242.133041 298.928528,232.387772 
	C298.198364,226.190613 298.075684,220.296005 296.745972,214.687561 
	C293.061066,199.145096 284.959869,186.698990 269.216064,181.225677 
	C261.931580,178.693222 254.097137,177.742599 246.303650,175.823792 
	C245.761581,175.307526 245.427872,175.042282 245.094177,174.777039 
z"/>
<path fill="#7D9D25" opacity="1.000000" stroke="none" 
	d="
M482.881042,279.111572 
	C434.940521,227.643707 387.244781,176.432175 339.537323,125.231560 
	C306.710083,90.000694 273.865265,54.786205 241.038818,19.554564 
	C240.280640,18.740822 239.648376,17.809771 238.633652,16.522919 
	C254.381546,11.720463 269.966278,10.021389 285.803650,11.357911 
	C318.195251,14.091457 346.183502,26.992764 369.045227,49.932934 
	C377.873047,58.791050 384.749023,69.587082 392.597290,79.434029 
	C394.426971,81.729652 393.209595,83.142334 391.890381,85.050095 
	C386.646423,92.633690 381.605438,100.357620 376.489258,108.029564 
	C376.984772,108.502510 377.480286,108.975456 377.975800,109.448402 
	C379.621552,107.940796 381.362549,106.523933 382.898651,104.911835 
	C402.597839,84.238235 426.736603,73.985970 455.239685,75.261726 
	C480.929901,76.411583 502.354614,87.404602 519.456055,106.419464 
	C538.934326,128.077179 547.937256,153.900208 546.614685,182.815201 
	C545.025391,217.561935 530.238586,245.668030 501.596313,266.028290 
	C501.064301,266.406464 500.535614,266.789246 500.188446,267.860260 
	C502.875153,267.219879 505.602356,266.711700 508.237885,265.904297 
	C511.255188,264.979950 514.225464,263.874878 517.152283,262.690521 
	C519.904114,261.576996 522.572815,260.257904 525.777832,258.802277 
	C531.095520,279.821045 530.058594,300.088684 522.337585,321.324524 
	C508.879791,306.928131 496.000305,293.150360 482.881042,279.111572 
z"/>
<path fill="#6E872B" opacity="1.000000" stroke="none" 
	d="
M252.227203,401.049103 
	C231.479752,423.200989 205.919708,432.580475 175.859909,429.236755 
	C133.753693,424.553009 101.722717,389.848846 94.006035,348.972900 
	C90.964767,332.863007 91.336540,316.885101 95.778648,301.050720 
	C96.046272,300.096741 96.192780,299.081909 96.209480,298.092285 
	C96.225220,297.160461 95.994659,296.224487 95.707100,294.026306 
	C87.093994,307.053375 83.139381,320.521179 80.731659,334.604675 
	C24.546515,300.919586 2.809875,201.817322 63.913956,138.429443 
	C65.228928,140.367676 66.303459,142.493362 67.861687,144.169388 
	C111.548042,191.158401 155.277893,238.107010 199.026138,285.038452 
	C201.277634,287.453766 203.755905,289.657654 206.562561,292.479980 
	C210.258179,303.763885 213.167297,314.651794 216.896042,325.251404 
	C219.742172,333.342072 223.626556,341.067505 227.028564,348.974487 
	C227.008072,348.993591 226.970169,349.034821 226.637360,348.935120 
	C225.278839,348.281067 224.225693,347.771698 223.231491,347.165619 
	C204.436813,335.708588 184.244812,329.397095 162.054092,331.203369 
	C156.555099,331.650970 151.159210,333.365387 145.715927,334.497498 
	C150.953094,336.385834 155.896484,336.999329 160.766846,337.976776 
	C191.178314,344.080170 218.576355,356.092560 239.227585,380.108917 
	C244.520233,386.263977 247.944550,394.025574 252.227203,401.049103 
z"/>
<path fill="#1C1C1B" opacity="1.000000" stroke="none" 
	d="
M252.555176,401.134369 
	C247.944550,394.025574 244.520233,386.263977 239.227585,380.108917 
	C218.576355,356.092560 191.178314,344.080170 160.766846,337.976776 
	C155.896484,336.999329 150.953094,336.385834 145.715927,334.497498 
	C151.159210,333.365387 156.555099,331.650970 162.054092,331.203369 
	C184.244812,329.397095 204.436813,335.708588 223.231491,347.165619 
	C224.225693,347.771698 225.278839,348.281067 226.692444,349.122620 
	C227.269653,349.388947 227.459000,349.368042 227.648331,349.347168 
	C227.448578,349.216583 227.248825,349.085999 227.049072,348.955414 
	C223.626556,341.067505 219.742172,333.342072 216.896042,325.251404 
	C213.167297,314.651794 210.258179,303.763885 206.886414,292.696442 
	C206.169800,288.987549 205.563278,285.582184 204.912781,281.339539 
	C203.545273,268.818665 204.388245,257.324738 209.072754,246.466354 
	C211.792770,240.161545 214.782822,233.721848 221.976562,230.974319 
	C221.992966,230.991928 222.028610,231.024124 222.039490,231.402130 
	C218.125031,241.148010 214.971115,250.659378 214.779160,261.008148 
	C214.511429,275.443665 217.044968,289.330780 221.971970,303.216156 
	C223.915939,308.091583 225.918762,312.574585 228.005753,317.320709 
	C228.400497,317.721954 228.711060,317.860107 229.009613,318.000000 
	C228.997620,318.001709 229.000229,317.976471 228.905243,318.358490 
	C229.547409,320.754303 229.982544,322.950378 231.070450,324.752380 
	C238.336548,336.787964 245.666794,348.786652 253.151855,360.686859 
	C255.168167,363.892548 257.792114,366.716034 260.737579,370.482758 
	C260.737579,363.008881 260.737579,356.878754 260.830017,350.324707 
	C260.879852,347.092072 260.837250,344.283264 260.953735,341.045593 
	C262.605621,328.948547 263.177948,317.069183 265.796844,305.659576 
	C270.234802,286.324768 276.315338,267.371307 280.979919,248.082123 
	C282.855927,240.324402 282.817078,232.103653 283.634521,223.693680 
	C282.050262,218.952988 280.481171,214.612244 278.984985,209.888306 
	C277.065033,206.119766 275.670441,202.116043 272.949371,199.483414 
	C267.960815,194.657013 262.189636,190.639603 256.869324,186.160324 
	C256.993896,186.035767 256.745483,186.279388 256.746368,185.968430 
	C256.216949,185.395584 255.686630,185.133682 254.882141,184.666443 
	C250.341980,182.323517 246.076004,180.185928 241.810043,178.048325 
	C242.659668,177.516769 243.509277,176.985229 245.078384,176.384644 
	C246.035919,176.235352 246.273987,176.155090 246.512039,176.074814 
	C254.097137,177.742599 261.931580,178.693222 269.216064,181.225677 
	C284.959869,186.698990 293.061066,199.145096 296.745972,214.687561 
	C298.075684,220.296005 298.198364,226.190613 298.861023,232.848251 
	C298.852814,236.490829 298.855408,239.239777 298.636230,242.324768 
	C296.468079,254.608536 294.521637,266.556305 292.511169,278.897095 
	C302.437836,275.178375 312.331207,272.225433 320.603516,265.160919 
	C322.678314,263.787598 324.406372,262.460022 326.134399,261.132477 
	C336.761932,254.129196 344.501343,244.457764 351.051117,233.775269 
	C357.887665,222.625061 362.529388,210.568619 365.134430,197.736237 
	C365.387970,196.487213 365.859314,195.282425 366.436981,193.370758 
	C368.924377,220.089478 363.168549,249.475830 336.714417,272.635986 
	C334.774567,274.586212 333.277740,276.114716 331.428345,277.677490 
	C320.956177,285.763275 310.394440,293.334503 300.904663,302.070160 
	C296.202972,306.398254 292.424438,312.453735 290.051361,318.449310 
	C283.265808,335.593170 286.699554,352.400635 293.856445,368.674866 
	C295.941742,373.416656 298.548981,377.928864 301.340393,383.372009 
	C304.308624,377.433197 305.992401,372.218689 309.137451,368.127563 
	C317.630890,357.079132 326.910400,346.638824 335.566254,335.710297 
	C343.375610,325.850616 350.772461,315.664215 358.657104,305.446014 
	C359.955902,303.239655 360.948883,301.209198 361.941895,299.178741 
	C366.347900,289.963989 370.828278,280.783600 375.114502,271.513428 
	C376.397247,268.739166 377.137665,265.714142 378.609131,262.947754 
	C377.817932,278.411469 375.088348,293.449432 369.924530,308.388580 
	C369.130859,310.591370 368.355408,312.426910 367.288635,314.894775 
	C362.920471,323.277191 358.843689,331.027222 354.606567,338.882874 
	C354.486908,339.193390 354.527527,339.398346 354.568176,339.603302 
	C354.755280,339.450165 354.942383,339.296997 355.577301,339.182495 
	C366.938965,338.097382 377.786987,337.896393 389.098328,341.553070 
	C387.148071,342.067963 385.897583,342.519989 384.608002,342.719757 
	C371.150635,344.804169 358.543579,349.250458 347.011383,356.509583 
	C330.756622,366.741455 319.516968,380.797577 314.717468,399.640625 
	C314.013763,401.806213 313.310089,403.971832 312.412415,406.875946 
	C311.781677,411.676880 311.344940,415.739288 310.908203,419.801727 
	C308.713654,436.898438 311.756134,453.248749 319.321899,468.501740 
	C330.196014,490.424561 348.683105,503.914398 371.038391,512.583923 
	C372.662781,513.213928 374.617218,513.127686 376.420013,513.141724 
	C391.054932,513.255371 405.690277,513.313416 420.824829,513.879639 
	C423.257263,515.352295 424.084625,516.513855 421.941376,518.159302 
	C401.478821,518.277710 381.016296,518.482727 360.553680,518.498108 
	C301.596100,518.542603 242.638443,518.510498 183.316208,517.940247 
	C182.607254,516.138733 182.262909,514.905457 181.918579,513.672119 
	C185.867691,513.502869 189.869354,512.842773 193.755814,513.258789 
	C204.326218,514.390381 213.602203,511.478577 222.481430,505.904816 
	C236.448547,497.137268 248.712723,486.817017 256.588348,471.971588 
	C265.426453,455.311951 265.816284,437.928345 260.625580,420.283356 
	C258.699554,413.736176 255.501236,407.563232 252.555176,401.134369 
z"/>
<path fill="#7C9D25" opacity="1.000000" stroke="none" 
	d="
M221.960144,230.956696 
	C214.782822,233.721848 211.792770,240.161545 209.072754,246.466354 
	C204.388245,257.324738 203.545273,268.818665 204.793121,280.956848 
	C194.774109,270.881836 184.777252,260.402161 174.897171,249.813507 
	C140.337936,212.775848 105.818336,175.701218 71.287544,138.637054 
	C70.159874,137.426636 69.073959,136.177353 67.626534,134.565201 
	C86.174370,117.553543 107.577599,107.455307 133.305252,104.529190 
	C131.516373,122.403961 131.877563,139.690979 136.386612,156.691788 
	C137.582657,132.419220 142.609146,109.240738 154.857590,87.123291 
	C182.991333,117.262695 210.791611,147.044876 238.964691,176.583969 
	C239.337479,176.340881 239.371078,176.121262 239.371078,176.121262 
	C239.674789,176.362762 239.978500,176.604248 240.202393,177.669128 
	C253.572922,192.977783 267.011810,207.473740 280.500793,221.922928 
	C281.350525,222.833115 282.591034,223.378525 283.649719,224.093643 
	C282.817078,232.103653 282.855927,240.324402 280.979919,248.082123 
	C276.315338,267.371307 270.234802,286.324768 265.796844,305.659576 
	C263.177948,317.069183 262.605621,328.948547 260.642548,340.877136 
	C249.087692,329.292572 238.040817,317.411804 226.865494,305.653046 
	C225.629761,304.352783 223.660110,303.750000 222.030823,302.823761 
	C217.044968,289.330780 214.511429,275.443665 214.779160,261.008148 
	C214.971115,250.659378 218.125031,241.148010 222.204620,231.354294 
	C222.394531,230.810455 222.430206,230.692459 222.465897,230.574463 
	C222.297302,230.701874 222.128723,230.829285 221.960144,230.956696 
z"/>
<path fill="#7C9D25" opacity="1.000000" stroke="none" 
	d="
M314.911377,399.954285 
	C319.516968,380.797577 330.756622,366.741455 347.011383,356.509583 
	C358.543579,349.250458 371.150635,344.804169 384.608002,342.719757 
	C385.897583,342.519989 387.148071,342.067963 389.098328,341.553070 
	C377.786987,337.896393 366.938965,338.097382 355.487946,339.089600 
	C354.950775,338.958008 354.766907,338.777283 354.766907,338.777283 
	C358.843689,331.027222 362.920471,323.277191 367.178833,315.259521 
	C391.967072,341.456512 416.573700,367.921082 442.142639,395.420624 
	C435.879913,402.043182 430.138275,409.149323 423.366211,415.078644 
	C404.304413,431.768402 381.826508,438.752106 356.571411,437.002991 
	C351.446899,436.648102 347.262054,435.286713 343.597595,431.090302 
	C334.398315,420.555817 324.639648,410.509796 314.911377,399.954285 
z"/>
<path fill="#000000" opacity="1.000000" stroke="none" 
	d="
M181.517075,513.589478 
	C182.262909,514.905457 182.607254,516.138733 182.975006,517.681519 
	C145.077103,517.990906 107.155762,517.990906 69.278984,517.990906 
	C68.548340,514.606689 69.280579,512.955933 72.836327,512.962524 
	C108.122002,513.027832 143.407837,512.999756 178.693619,513.024902 
	C179.501053,513.025452 180.308273,513.339111 181.517075,513.589478 
z"/>
<path fill="#000000" opacity="1.000000" stroke="none" 
	d="
M422.399017,518.302734 
	C424.084625,516.513855 423.257263,515.352295 421.178986,514.098022 
	C423.817444,513.550537 426.600494,513.045471 429.384888,513.037659 
	C452.341095,512.973389 475.297546,512.990601 498.253937,513.014099 
	C501.332581,513.017212 504.644684,512.928162 503.786560,517.998657 
	C479.488678,517.998657 455.387939,517.984070 431.287292,518.018372 
	C428.476868,518.022400 425.666870,518.296997 422.399017,518.302734 
z"/>
<path fill="#F8F9F5" opacity="1.000000" stroke="none" 
	d="
M283.634521,223.693680 
	C282.591034,223.378525 281.350525,222.833115 280.500793,221.922928 
	C267.011810,207.473740 253.572922,192.977783 240.368042,178.227097 
	C240.879578,177.938797 241.145355,177.941895 241.610443,178.009644 
	C246.076004,180.185928 250.341980,182.323517 254.964859,184.945160 
	C255.796341,185.712616 256.270905,185.996002 256.745483,186.279388 
	C256.745483,186.279388 256.993896,186.035767 256.926880,186.491745 
	C264.210571,194.722321 271.561340,202.496902 278.912079,210.271500 
	C280.481171,214.612244 282.050262,218.952988 283.634521,223.693680 
z"/>
<path fill="#748B34" opacity="1.000000" stroke="none" 
	d="
M311.250916,419.900513 
	C311.344940,415.739288 311.781677,411.676880 312.371674,407.264404 
	C320.128632,415.018707 327.732330,423.123077 335.335999,431.227417 
	C334.987823,431.748169 334.639618,432.268921 334.291443,432.789673 
	C326.725494,428.526215 319.159546,424.262726 311.250916,419.900513 
z"/>
<path fill="#F8F9F5" opacity="1.000000" stroke="none" 
	d="
M239.329269,176.137299 
	C239.371078,176.121262 239.337479,176.340881 239.228058,176.351379 
	C239.118652,176.361862 239.287460,176.153351 239.329269,176.137299 
z"/>
<path fill="#F8F9F5" opacity="1.000000" stroke="none" 
	d="
M246.303650,175.823792 
	C246.273987,176.155090 246.035919,176.235352 245.429138,176.237885 
	C245.055145,175.929459 245.049866,175.698776 245.069382,175.122559 
	C245.427872,175.042282 245.761581,175.307526 246.303650,175.823792 
z"/>
<path fill="#F8F9F6" opacity="1.000000" stroke="none" 
	d="
M361.615662,299.062683 
	C360.948883,301.209198 359.955902,303.239655 358.436584,305.128967 
	C349.200500,295.872925 340.490723,286.758087 331.780945,277.643219 
	C333.277740,276.114716 334.774567,274.586212 336.578674,272.938965 
	C345.020477,281.528992 353.154968,290.237823 361.615662,299.062683 
z"/>
<path fill="#F9FAF6" opacity="1.000000" stroke="none" 
	d="
M298.858032,241.988739 
	C298.855408,239.239777 298.852814,236.490829 298.917725,233.281387 
	C307.839111,242.133041 316.692963,251.445190 325.840637,260.944885 
	C324.406372,262.460022 322.678314,263.787598 320.485687,264.815125 
	C312.966736,257.006348 305.912384,249.497528 298.858032,241.988739 
z"/>
<path fill="#7B9C24" opacity="1.000000" stroke="none" 
	d="
M331.428345,277.677490 
	C340.490723,286.758087 349.200500,295.872925 358.130768,305.304871 
	C350.772461,315.664215 343.375610,325.850616 335.566254,335.710297 
	C326.910400,346.638824 317.630890,357.079132 309.137451,368.127563 
	C305.992401,372.218689 304.308624,377.433197 301.340393,383.372009 
	C298.548981,377.928864 295.941742,373.416656 293.856445,368.674866 
	C286.699554,352.400635 283.265808,335.593170 290.051361,318.449310 
	C292.424438,312.453735 296.202972,306.398254 300.904663,302.070160 
	C310.394440,293.334503 320.956177,285.763275 331.428345,277.677490 
z"/>
<path fill="#7B9B26" opacity="1.000000" stroke="none" 
	d="
M298.636261,242.324768 
	C305.912384,249.497528 312.966736,257.006348 320.138916,264.860901 
	C312.331207,272.225433 302.437836,275.178375 292.511169,278.897095 
	C294.521637,266.556305 296.468079,254.608536 298.636261,242.324768 
z"/>
<path fill="#6D852C" opacity="1.000000" stroke="none" 
	d="
M260.737579,350.748596 
	C260.737579,356.878754 260.737579,363.008881 260.737579,370.482758 
	C257.792114,366.716034 255.168167,363.892548 253.151855,360.686859 
	C245.666794,348.786652 238.336548,336.787964 231.070450,324.752380 
	C229.982544,322.950378 229.547409,320.754303 229.240891,318.417938 
	C231.162247,319.640991 232.663177,321.176971 234.142090,322.733856 
	C243.010056,332.069427 251.872971,341.409821 260.737579,350.748596 
z"/>
<path fill="#F5F6F1" opacity="1.000000" stroke="none" 
	d="
M260.830017,350.324707 
	C251.872971,341.409821 243.010056,332.069427 234.142090,322.733856 
	C232.663177,321.176971 231.162247,319.640991 229.335876,318.035919 
	C229.000229,317.976471 228.997620,318.001709 228.984512,317.697327 
	C228.621460,317.281158 228.271515,317.169403 227.921570,317.057617 
	C225.918762,312.574585 223.915939,308.091583 221.971970,303.216156 
	C223.660110,303.750000 225.629761,304.352783 226.865494,305.653046 
	C238.040817,317.411804 249.087692,329.292572 260.483398,341.306030 
	C260.837250,344.283264 260.879852,347.092072 260.830017,350.324707 
z"/>
<path fill="#748B35" opacity="1.000000" stroke="none" 
	d="
M278.984985,209.888306 
	C271.561340,202.496902 264.210571,194.722321 256.802307,186.616302 
	C262.189636,190.639603 267.960815,194.657013 272.949371,199.483414 
	C275.670441,202.116043 277.065033,206.119766 278.984985,209.888306 
z"/>
<path fill="#748B35" opacity="1.000000" stroke="none" 
	d="
M256.746368,185.968430 
	C256.270905,185.996002 255.796341,185.712616 255.239044,185.150513 
	C255.686630,185.133682 256.216949,185.395584 256.746368,185.968430 
z"/>
<path fill="#6D852C" opacity="1.000000" stroke="none" 
	d="
M228.005753,317.320709 
	C228.271515,317.169403 228.621460,317.281158 228.996521,317.695618 
	C228.711060,317.860107 228.400497,317.721954 228.005753,317.320709 
z"/>
<path fill="#7C9D25" opacity="1.000000" stroke="none" 
	d="
M355.040131,339.050903 
	C354.942383,339.296997 354.755280,339.450165 354.568176,339.603302 
	C354.527527,339.398346 354.486908,339.193390 354.606567,338.882874 
	C354.766907,338.777283 354.950775,338.958008 355.040131,339.050903 
z"/>
<path fill="#6E872B" opacity="1.000000" stroke="none" 
	d="
M227.028564,348.974487 
	C227.248825,349.085999 227.448578,349.216583 227.648331,349.347168 
	C227.459000,349.368042 227.269653,349.388947 227.025238,349.222321 
	C226.970169,349.034821 227.008072,348.993591 227.028564,348.974487 
z"/>
<path fill="#1C1C1B" opacity="1.000000" stroke="none" 
	d="
M221.976562,230.974304 
	C222.128723,230.829285 222.297302,230.701874 222.465897,230.574463 
	C222.430206,230.692459 222.394531,230.810455 222.193726,230.976288 
	C222.028610,231.024124 221.992966,230.991928 221.976562,230.974304 
z"/>
</svg>